HIERARCHY
ROOT Hips
{
 OFFSET 0.000000 0.000000 0.000000
 CHANNELS 6 Xposition Yposition Zposition Yrotation Xrotation Zrotation
 JOINT Chest
 {
  OFFSET 0.000000 9.585900 0.002600
  CHANNELS 3 Yrotation Xrotation Zrotation
  JOINT Chest2
  {
   OFFSET 0.000000 9.601200 -0.005300
   CHANNELS 3 Yrotation Xrotation Zrotation
   JOINT Chest3
   {
    OFFSET 0.000000 9.561800 0.000000
    CHANNELS 3 Yrotation Xrotation Zrotation
    JOINT Chest4
    {
     OFFSET 0.000000 9.552100 0.000000
     CHANNELS 3 Yrotation Xrotation Zrotation
     JOINT Neck
     {
      OFFSET 0.000000 14.453000 0.000000
      CHANNELS 3 Yrotation Xrotation Zrotation
      JOINT Head
      {
       OFFSET 0.000000 8.936500 -0.011300
       CHANNELS 3 Yrotation Xrotation Zrotation
       End Site
       {
        OFFSET 0.000000 17.073600 -0.006000
       }
      }
     }
     JOINT RightCollar
     {
      OFFSET -2.921100 9.558500 0.000000
      CHANNELS 3 Yrotation Xrotation Zrotation
      JOINT RightShoulder
      {
       OFFSET -13.519700 0.000000 0.000000
       CHANNELS 3 Yrotation Xrotation Zrotation
       JOINT RightElbow
       {
        OFFSET 0.000000 -29.696600 0.000000
        CHANNELS 3 Yrotation Xrotation Zrotation
        JOINT RightWrist
        {
         OFFSET 0.000000 -24.004700 0.000000
         CHANNELS 3 Yrotation Xrotation Zrotation
         End Site
         {
          OFFSET 0.000000 -17.728500 0.000000
         }
        }
       }
      }
     }
     JOINT LeftCollar
     {
      OFFSET 2.921100 9.558500 0.000000
      CHANNELS 3 Yrotation Xrotation Zrotation
      JOINT LeftShoulder
      {
       OFFSET 13.519700 0.000000 0.000000
       CHANNELS 3 Yrotation Xrotation Zrotation
       JOINT LeftElbow
       {
        OFFSET 0.000000 -29.696600 0.000000
        CHANNELS 3 Yrotation Xrotation Zrotation
        JOINT LeftWrist
        {
         OFFSET 0.000000 -24.004700 0.000000
         CHANNELS 3 Yrotation Xrotation Zrotation
         End Site
         {
          OFFSET 0.000000 -17.728500 0.000000
         }
        }
       }
      }
     }
    }
   }
  }
 }
 JOINT RightHip
 {
  OFFSET -7.771700 -0.012900 -0.001300
  CHANNELS 3 Yrotation Xrotation Zrotation
  JOINT RightKnee
  {
   OFFSET 0.000000 -40.869800 0.001200
   CHANNELS 3 Yrotation Xrotation Zrotation
   JOINT RightAnkle
   {
    OFFSET 0.000000 -39.717900 0.002100
    CHANNELS 3 Yrotation Xrotation Zrotation
    JOINT RightToe
    {
     OFFSET 0.000000 -4.965400 11.033500
     CHANNELS 3 Yrotation Xrotation Zrotation
     End Site
     {
      OFFSET 0.000000 -1.423100 5.872300
     }
    }
   }
  }
 }
 JOINT LeftHip
 {
  OFFSET 7.771700 -0.012900 -0.001300
  CHANNELS 3 Yrotation Xrotation Zrotation
  JOINT LeftKnee
  {
   OFFSET 0.000000 -40.869800 0.001200
   CHANNELS 3 Yrotation Xrotation Zrotation
   JOINT LeftAnkle
   {
    OFFSET 0.000000 -39.717900 0.002100
    CHANNELS 3 Yrotation Xrotation Zrotation
    JOINT LeftToe
    {
     OFFSET 0.000000 -4.965400 11.033500
     CHANNELS 3 Yrotation Xrotation Zrotation
     End Site
     {
      OFFSET 0.000000 -1.423100 5.872300
     }
    }
   }
  }
 }
}
MOTION
Frames: 9
Frame Time: 0.008333
0.000000 85.388000 0.000000 0.000000 -5.767877 0.000000 0.000000 11.653817 0.000000 0.000000 -5.885947 0.000000 0.000000 -0.000000 0.000000 0.000000 -0.000000 0.000000 0.000000 12.528835 0.000000 0.000000 0.711642 0.000000 0.000000 -0.000000 0.000000 0.000000 0.000000 -90.000000 0.000000 -2.309062 0.000000 0.000000 2.309062 0.000000 0.000000 -0.000000 0.000000 0.000000 -0.000000 90.000000 0.000000 -2.309062 0.000000 0.000000 2.309062 0.000000 0.000000 8.520406 0.000000 0.000000 1.905762 0.000000 -0.000000 -4.658285 0.000000 0.000000 -0.000000 0.000000 0.000000 8.520406 0.000000 0.000000 1.905762 0.000000 -0.000000 -4.658285 0.000000 0.000000 -0.000000 0.000000
-26.504059 58.021575 26.460393 164.841376 -10.686785 1.404299 1.107678 3.321996 2.745882 -0.008849 0.144225 0.043176 0.066135 0.120852 0.108923 0.832968 3.562735 2.073019 3.774474 17.455624 -1.954909 7.615314 -3.156993 -4.866448 0.789407 7.121986 -0.390617 -4.590608 -2.321928 -11.358200 -37.146112 -76.286444 73.906143 -3.315368 3.009449 -21.446044 -2.251996 7.550411 -1.205531 -1.360886 1.314139 6.948826 22.737877 -76.689994 -51.239476 -5.285214 10.017563 4.533046 -11.906919 -61.989404 0.407212 -36.737007 72.348746 -38.204511 -3.736933 -7.640127 -0.474767 -0.115478 0.909138 -0.006916 2.227739 -63.940178 10.045905 34.165485 65.858733 26.050741 -17.195445 -10.638758 6.550918 -0.309722 -0.735291 -0.238777
-26.496785 58.000567 26.427661 164.832912 -10.677407 1.403145 1.069838 3.408999 2.728394 0.013468 0.103277 0.051334 0.038150 0.160117 0.094636 0.887489 3.457008 2.078926 3.753804 17.447201 -1.942841 7.610685 -3.158477 -4.852440 0.810582 7.092551 -0.393877 -4.586037 -2.308207 -11.389056 -37.899477 -76.368682 74.842508 -3.173414 3.086646 -21.078577 -2.230037 7.487059 -1.186742 -1.437331 1.396302 7.082453 22.637486 -76.740108 -51.431602 -5.449653 10.066933 4.128997 -11.833022 -61.993287 0.378858 -36.930445 72.373271 -38.410025 -3.710067 -7.736400 -0.443784 -0.151507 0.957861 0.005744 2.057840 -63.941041 10.169722 34.333615 65.873617 26.207031 -17.185064 -10.624738 6.530614 -0.303749 -0.749684 -0.242059
-26.485168 57.976177 26.403158 164.773873 -10.591348 1.382343 1.101537 3.401042 2.748177 0.021792 0.087068 0.052228 0.038867 0.155217 0.093020 0.913116 3.394437 2.070712 3.728898 17.440366 -1.931456 7.543724 -3.183693 -4.816076 0.838033 7.057842 -0.392234 -4.568492 -2.288068 -11.426618 -38.655882 -76.441896 75.767107 -3.030855 3.165457 -20.731587 -2.208770 7.417555 -1.172418 -1.511689 1.465072 7.216630 22.445060 -76.799869 -51.550126 -5.616756 10.126688 3.717789 -11.773014 -62.061308 0.436388 -37.096834 72.368304 -38.559075 -3.729384 -7.811180 -0.430976 -0.134000 1.017293 0.006637 1.861226 -64.015073 10.375831 34.563428 65.873863 26.414206 -17.177976 -10.616598 6.506770 -0.294038 -0.738271 -0.241310
-26.472972 57.951682 26.379314 164.726528 -10.478750 1.368775 1.133324 3.357363 2.760719 0.022188 0.084365 0.051249 0.039552 0.150483 0.091387 0.938600 3.333235 2.060555 3.715686 17.435614 -1.915731 7.452275 -3.204966 -4.778426 0.859654 7.019232 -0.390867 -4.528902 -2.265474 -11.464099 -39.397927 -76.508334 76.666565 -2.888363 3.243422 -20.399882 -2.188764 7.342455 -1.161263 -1.595483 1.521596 7.352551 22.170323 -76.867345 -51.588999 -5.783390 10.192367 3.316745 -11.780594 -62.163191 0.518038 -37.170025 72.376104 -38.629980 -3.726585 -7.845549 -0.425980 -0.131612 1.054973 -0.015568 1.665101 -64.109760 10.574003 34.814728 65.858219 26.631152 -17.190903 -10.607797 6.464393 -0.248192 -0.723304 -0.221223
-26.454663 57.927679 26.362001 164.665959 -10.323627 1.329294 1.185557 3.272234 2.800961 0.029575 0.048717 0.053829 0.039863 0.148170 0.090564 0.950947 3.303224 2.055020 3.701082 17.430757 -1.909132 7.372420 -3.212988 -4.746791 0.943857 6.956178 -0.408621 -4.534808 -2.214259 -11.484893 -40.101323 -76.570311 77.517773 -2.743033 3.320514 -20.072716 -2.168297 7.270726 -1.164682 -1.690300 1.562590 7.493084 21.822192 -76.937915 -51.549362 -5.946232 10.259880 2.939470 -11.775415 -62.289585 0.635134 -37.287583 72.359494 -38.714892 -3.728361 -7.895010 -0.430787 -0.130358 1.101665 -0.013853 1.426464 -64.253329 10.838039 35.092780 65.836690 26.873929 -17.183088 -10.568659 6.434635 -0.221132 -0.731019 -0.218365
-26.435971 57.907898 26.334583 164.678167 -10.225424 1.309353 1.171170 3.208070 2.813305 0.029286 0.048819 0.052772 0.040058 0.145878 0.089732 0.961327 3.273848 2.049241 3.668428 17.429450 -1.908318 7.301589 -3.223122 -4.715853 0.977958 6.934626 -0.409363 -4.478059 -2.205264 -11.522551 -40.756117 -76.628634 78.312218 -2.593387 3.399781 -19.733494 -2.152895 7.204945 -1.171314 -1.788126 1.588621 7.635763 21.413779 -77.008505 -51.446753 -6.099197 10.331832 2.601222 -11.785441 -62.374601 0.674268 -37.421703 72.390907 -38.851451 -3.700717 -7.964032 -0.390859 -0.180423 1.130205 -0.031880 1.191629 -64.343272 11.026039 35.374291 65.810708 27.125768 -17.212313 -10.495576 6.393363 -0.182781 -0.762624 -0.204783
-26.417225 57.889529 26.313464 164.655673 -10.091688 1.303309 1.190247 3.157369 2.810216 0.026431 0.030046 0.056713 0.040680 0.141521 0.087946 0.984422 3.217429 2.035862 3.632224 17.426670 -1.897087 7.221058 -3.234610 -4.686317 0.983081 6.925095 -0.392455 -4.389485 -2.208908 -11.567002 -41.349819 -76.683196 79.040580 -2.443434 3.483495 -19.381534 -2.150964 7.147113 -1.166392 -1.887709 1.603478 7.772978 20.964133 -77.074932 -51.298885 -6.239019 10.412278 2.315115 -11.802536 -62.500472 0.738595 -37.484713 72.412956 -38.919186 -3.670612 -7.987024 -0.370977 -0.225039 1.128343 -0.041227 1.030017 -64.470195 11.180489 35.645977 65.783238 27.378152 -17.255946 -10.413249 6.340783 -0.139472 -0.797017 -0.182228
-26.397782 57.872449 26.297937 164.624223 -9.932945 1.300948 1.224987 3.080827 2.801758 0.024549 0.059671 0.050261 0.042731 0.090946 0.095029 1.012763 3.175080 1.987449 3.548660 17.411519 -1.873781 7.174895 -3.261788 -4.645403 1.014062 6.886380 -0.350107 -4.321956 -2.200390 -11.590908 -41.864457 -76.733788 79.681280 -2.293680 3.572915 -19.030805 -2.161455 7.092949 -1.114505 -2.002355 1.599595 7.899140 20.466176 -77.130173 -51.087639 -6.366552 10.501562 2.089075 -11.817696 -62.651627 0.808184 -37.532643 72.424906 -38.963154 -3.623968 -7.989601 -0.390222 -0.258663 1.125552 -0.033822 0.913209 -64.625202 11.304523 35.858917 65.763643 27.574305 -17.246924 -10.318450 6.306101 -0.118645 -0.836838 -0.169722
